<mxfile host="Electron" agent="Mozilla/5.0 (Windows NT 10.0; Win64; x64) AppleWebKit/537.36 (KHTML, like Gecko) draw.io/26.2.15 Chrome/134.0.6998.205 Electron/35.2.1 Safari/537.36" version="26.2.15">
  <diagram name="Page-1" id="kLZOXouvJf_xkU7XG9zv">
    <mxGraphModel dx="1054" dy="626" grid="1" gridSize="10" guides="1" tooltips="1" connect="1" arrows="1" fold="1" page="1" pageScale="1" pageWidth="850" pageHeight="1100" math="0" shadow="0">
      <root>
        <mxCell id="0" />
        <mxCell id="1" parent="0" />
        <mxCell id="rNzydP8nq7r04hHPklQR-13" value="" style="rounded=0;whiteSpace=wrap;html=1;fillColor=none;strokeColor=#d6b656;fontSize=12;" vertex="1" parent="1">
          <mxGeometry x="520" y="290" width="100" height="260" as="geometry" />
        </mxCell>
        <mxCell id="rNzydP8nq7r04hHPklQR-1" value="" style="rounded=0;whiteSpace=wrap;html=1;fillColor=none;dashed=1;" vertex="1" parent="1">
          <mxGeometry x="60" y="220" width="150" height="350" as="geometry" />
        </mxCell>
        <mxCell id="rNzydP8nq7r04hHPklQR-2" value="&lt;font style=&quot;font-size: 14px;&quot;&gt;Sources&lt;/font&gt;" style="rounded=0;whiteSpace=wrap;html=1;strokeColor=none;fillColor=default;fontStyle=1" vertex="1" parent="1">
          <mxGeometry x="90" y="210" width="80" height="20" as="geometry" />
        </mxCell>
        <mxCell id="rNzydP8nq7r04hHPklQR-3" value="" style="rounded=0;whiteSpace=wrap;html=1;fillColor=none;dashed=1;" vertex="1" parent="1">
          <mxGeometry x="260" y="220" width="390" height="350" as="geometry" />
        </mxCell>
        <mxCell id="rNzydP8nq7r04hHPklQR-4" value="Datawarehouse" style="rounded=0;whiteSpace=wrap;html=1;strokeColor=none;fillColor=default;fontStyle=1;fontSize=14;" vertex="1" parent="1">
          <mxGeometry x="390" y="197.5" width="110" height="45" as="geometry" />
        </mxCell>
        <mxCell id="rNzydP8nq7r04hHPklQR-5" value="" style="rounded=0;whiteSpace=wrap;html=1;fillColor=none;dashed=1;" vertex="1" parent="1">
          <mxGeometry x="690" y="220" width="110" height="350" as="geometry" />
        </mxCell>
        <mxCell id="rNzydP8nq7r04hHPklQR-6" value="&lt;font style=&quot;font-size: 14px;&quot;&gt;Consume&lt;/font&gt;" style="rounded=0;whiteSpace=wrap;html=1;strokeColor=none;fillColor=default;fontStyle=1" vertex="1" parent="1">
          <mxGeometry x="705" y="210" width="80" height="20" as="geometry" />
        </mxCell>
        <mxCell id="rNzydP8nq7r04hHPklQR-7" value="&lt;font&gt;Bronze Layer&lt;/font&gt;" style="rounded=0;whiteSpace=wrap;html=1;fillColor=#d5e8d4;strokeColor=#82b366;fontSize=12;fontStyle=1" vertex="1" parent="1">
          <mxGeometry x="280" y="260" width="100" height="20" as="geometry" />
        </mxCell>
        <mxCell id="rNzydP8nq7r04hHPklQR-8" value="&lt;font&gt;Silver Layer&lt;/font&gt;" style="rounded=0;whiteSpace=wrap;html=1;fillColor=#f5f5f5;strokeColor=#666666;fontSize=12;fontColor=#333333;fontStyle=1" vertex="1" parent="1">
          <mxGeometry x="400" y="260" width="100" height="20" as="geometry" />
        </mxCell>
        <mxCell id="rNzydP8nq7r04hHPklQR-9" value="&lt;font&gt;Gold Layer&lt;/font&gt;" style="rounded=0;whiteSpace=wrap;html=1;fillColor=#fff2cc;strokeColor=#d6b656;fontSize=12;fontStyle=1" vertex="1" parent="1">
          <mxGeometry x="520" y="260" width="100" height="20" as="geometry" />
        </mxCell>
        <mxCell id="rNzydP8nq7r04hHPklQR-11" value="" style="rounded=0;whiteSpace=wrap;html=1;fillColor=#ffe6cc;strokeColor=#d79b00;fontSize=12;verticalLabelPosition=bottom;labelBackgroundColor=#ffffff;verticalAlign=top;strokeWidth=2;shadow=0;dashed=0;shape=mxgraph.ios7.icons.data;" vertex="1" parent="1">
          <mxGeometry x="310" y="370" width="40" height="50" as="geometry" />
        </mxCell>
        <mxCell id="rNzydP8nq7r04hHPklQR-12" value="" style="rounded=0;whiteSpace=wrap;html=1;fillColor=none;strokeColor=#9673a6;fontSize=12;" vertex="1" parent="1">
          <mxGeometry x="400" y="290" width="100" height="260" as="geometry" />
        </mxCell>
        <mxCell id="rNzydP8nq7r04hHPklQR-14" value="&lt;b&gt;CRM&lt;/b&gt;" style="image;aspect=fixed;html=1;points=[];align=center;fontSize=12;image=img/lib/azure2/general/Folder_Blank.svg;" vertex="1" parent="1">
          <mxGeometry x="104.2" y="248.12" width="51.6" height="41.88" as="geometry" />
        </mxCell>
        <mxCell id="rNzydP8nq7r04hHPklQR-15" value="" style="image;aspect=fixed;html=1;points=[];align=center;fontSize=12;image=img/lib/azure2/general/Files.svg;" vertex="1" parent="1">
          <mxGeometry x="137.51" y="270" width="18.29" height="20" as="geometry" />
        </mxCell>
        <mxCell id="rNzydP8nq7r04hHPklQR-16" value="&lt;b&gt;ERP&lt;/b&gt;" style="image;aspect=fixed;html=1;points=[];align=center;fontSize=12;image=img/lib/azure2/general/Folder_Blank.svg;" vertex="1" parent="1">
          <mxGeometry x="100" y="340" width="51.6" height="41.88" as="geometry" />
        </mxCell>
        <mxCell id="rNzydP8nq7r04hHPklQR-17" value="" style="image;aspect=fixed;html=1;points=[];align=center;fontSize=12;image=img/lib/azure2/general/Files.svg;" vertex="1" parent="1">
          <mxGeometry x="133.31" y="370" width="18.29" height="20" as="geometry" />
        </mxCell>
        <mxCell id="rNzydP8nq7r04hHPklQR-24" value="" style="endArrow=none;html=1;rounded=0;entryX=0.2;entryY=0.692;entryDx=0;entryDy=0;entryPerimeter=0;shadow=0;" edge="1" parent="1">
          <mxGeometry width="50" height="50" relative="1" as="geometry">
            <mxPoint x="90" y="440.08" as="sourcePoint" />
            <mxPoint x="170" y="439.99999999999983" as="targetPoint" />
          </mxGeometry>
        </mxCell>
        <mxCell id="rNzydP8nq7r04hHPklQR-26" value="&lt;b&gt;Object Type&lt;/b&gt;: CSV FIles&lt;div&gt;&lt;b&gt;Interface&lt;/b&gt;: FIles in Folder&lt;/div&gt;" style="text;html=1;align=left;verticalAlign=middle;whiteSpace=wrap;rounded=0;" vertex="1" parent="1">
          <mxGeometry x="80" y="450" width="110" height="80" as="geometry" />
        </mxCell>
        <mxCell id="rNzydP8nq7r04hHPklQR-27" value="" style="rounded=0;whiteSpace=wrap;html=1;fillColor=#f5f5f5;strokeColor=#666666;fontSize=12;verticalLabelPosition=bottom;labelBackgroundColor=#ffffff;verticalAlign=top;strokeWidth=2;shadow=0;dashed=0;shape=mxgraph.ios7.icons.data;fontColor=#333333;" vertex="1" parent="1">
          <mxGeometry x="430" y="370" width="40" height="50" as="geometry" />
        </mxCell>
        <mxCell id="rNzydP8nq7r04hHPklQR-28" value="" style="rounded=0;whiteSpace=wrap;html=1;fillColor=#fff2cc;strokeColor=#d6b656;fontSize=12;verticalLabelPosition=bottom;labelBackgroundColor=#ffffff;verticalAlign=top;strokeWidth=2;shadow=0;dashed=0;shape=mxgraph.ios7.icons.data;" vertex="1" parent="1">
          <mxGeometry x="550" y="370" width="40" height="50" as="geometry" />
        </mxCell>
        <mxCell id="rNzydP8nq7r04hHPklQR-32" value="" style="rounded=0;whiteSpace=wrap;html=1;fillColor=none;strokeColor=#82b366;fontSize=12;" vertex="1" parent="1">
          <mxGeometry x="280" y="290" width="100" height="260" as="geometry" />
        </mxCell>
        <mxCell id="rNzydP8nq7r04hHPklQR-33" value="" style="shape=flexArrow;endArrow=classic;html=1;rounded=0;fillColor=#1ba1e2;strokeColor=#006EAF;" edge="1" parent="1">
          <mxGeometry width="50" height="50" relative="1" as="geometry">
            <mxPoint x="200" y="394.38" as="sourcePoint" />
            <mxPoint x="270" y="394.38" as="targetPoint" />
          </mxGeometry>
        </mxCell>
        <mxCell id="rNzydP8nq7r04hHPklQR-34" value="" style="shape=flexArrow;endArrow=classic;html=1;rounded=0;fillColor=#1ba1e2;strokeColor=#006EAF;" edge="1" parent="1">
          <mxGeometry width="50" height="50" relative="1" as="geometry">
            <mxPoint x="360" y="394.38" as="sourcePoint" />
            <mxPoint x="420" y="394" as="targetPoint" />
          </mxGeometry>
        </mxCell>
        <mxCell id="rNzydP8nq7r04hHPklQR-35" value="" style="shape=flexArrow;endArrow=classic;html=1;rounded=0;fillColor=#1ba1e2;strokeColor=#006EAF;" edge="1" parent="1">
          <mxGeometry width="50" height="50" relative="1" as="geometry">
            <mxPoint x="480" y="394.76" as="sourcePoint" />
            <mxPoint x="540" y="394.38" as="targetPoint" />
          </mxGeometry>
        </mxCell>
        <mxCell id="rNzydP8nq7r04hHPklQR-37" value="" style="shape=flexArrow;endArrow=classic;html=1;rounded=0;fillColor=#1ba1e2;strokeColor=#006EAF;entryX=0;entryY=0.5;entryDx=0;entryDy=0;" edge="1" parent="1" target="rNzydP8nq7r04hHPklQR-5">
          <mxGeometry width="50" height="50" relative="1" as="geometry">
            <mxPoint x="620" y="394.76" as="sourcePoint" />
            <mxPoint x="680" y="394.38" as="targetPoint" />
          </mxGeometry>
        </mxCell>
        <mxCell id="rNzydP8nq7r04hHPklQR-38" value="Raw Data" style="text;html=1;align=center;verticalAlign=middle;whiteSpace=wrap;rounded=0;fontStyle=0" vertex="1" parent="1">
          <mxGeometry x="300" y="345" width="60" height="20" as="geometry" />
        </mxCell>
        <mxCell id="rNzydP8nq7r04hHPklQR-39" value="Cleaned Data" style="text;html=1;align=center;verticalAlign=middle;whiteSpace=wrap;rounded=0;fontStyle=0" vertex="1" parent="1">
          <mxGeometry x="410" y="340" width="80" height="30" as="geometry" />
        </mxCell>
        <mxCell id="rNzydP8nq7r04hHPklQR-40" value="Business-ready data" style="text;html=1;align=center;verticalAlign=middle;whiteSpace=wrap;rounded=0;fontStyle=0" vertex="1" parent="1">
          <mxGeometry x="526.25" y="345" width="90" height="20" as="geometry" />
        </mxCell>
        <mxCell id="rNzydP8nq7r04hHPklQR-41" value="BI &amp;amp; Reporting" style="image;aspect=fixed;html=1;points=[];align=center;fontSize=12;image=img/lib/azure2/analytics/Power_BI_Embedded.svg;" vertex="1" parent="1">
          <mxGeometry x="726.5" y="260" width="30" height="40" as="geometry" />
        </mxCell>
        <mxCell id="rNzydP8nq7r04hHPklQR-42" value="Ad-hoc SQl Queries" style="sketch=0;pointerEvents=1;shadow=0;dashed=0;html=1;strokeColor=none;labelPosition=center;verticalLabelPosition=bottom;verticalAlign=top;align=center;fillColor=#505050;shape=mxgraph.mscae.oms.log_search;whiteSpace=wrap;" vertex="1" parent="1">
          <mxGeometry x="723.5" y="350" width="43" height="40" as="geometry" />
        </mxCell>
        <mxCell id="rNzydP8nq7r04hHPklQR-43" value="" style="points=[];aspect=fixed;html=1;align=center;shadow=0;dashed=0;fillColor=#FF6A00;strokeColor=none;shape=mxgraph.alibaba_cloud.machine_learning;" vertex="1" parent="1">
          <mxGeometry x="721.62" y="470" width="39.76" height="40" as="geometry" />
        </mxCell>
        <mxCell id="rNzydP8nq7r04hHPklQR-44" value="Machine Learning" style="text;html=1;align=center;verticalAlign=middle;whiteSpace=wrap;rounded=0;" vertex="1" parent="1">
          <mxGeometry x="711.5" y="510" width="60" height="30" as="geometry" />
        </mxCell>
        <mxCell id="rNzydP8nq7r04hHPklQR-46" value="&lt;font style=&quot;font-size: 10px;&quot;&gt;&lt;b&gt;Object Type: &lt;/b&gt;Tables&lt;/font&gt;&lt;div&gt;&lt;b&gt;&lt;font style=&quot;font-size: 10px;&quot;&gt;Load:&lt;/font&gt;&lt;/b&gt;&lt;/div&gt;&lt;div&gt;&lt;font style=&quot;font-size: 10px;&quot;&gt;Batch Processing&lt;/font&gt;&lt;/div&gt;&lt;div&gt;&lt;font style=&quot;font-size: 10px;&quot;&gt;Full Load&lt;br&gt;&lt;/font&gt;&lt;/div&gt;&lt;div&gt;&lt;font style=&quot;font-size: 10px;&quot;&gt;Truncate &amp;amp; Insert&lt;/font&gt;&lt;br&gt;&lt;/div&gt;" style="text;html=1;align=left;verticalAlign=middle;whiteSpace=wrap;rounded=0;" vertex="1" parent="1">
          <mxGeometry x="285" y="430" width="105" height="110" as="geometry" />
        </mxCell>
        <mxCell id="rNzydP8nq7r04hHPklQR-47" value="&lt;font style=&quot;font-size: 10px;&quot;&gt;&lt;b&gt;Object Type: &lt;/b&gt;Tables&lt;/font&gt;&lt;div&gt;&lt;b&gt;&lt;font style=&quot;font-size: 10px;&quot;&gt;Load:&lt;/font&gt;&lt;/b&gt;&lt;/div&gt;&lt;div&gt;&lt;font style=&quot;font-size: 10px;&quot;&gt;Batch Processing&lt;/font&gt;&lt;/div&gt;&lt;div&gt;&lt;font style=&quot;font-size: 10px;&quot;&gt;Full Load&lt;br&gt;&lt;/font&gt;&lt;/div&gt;&lt;div&gt;&lt;font style=&quot;font-size: 10px;&quot;&gt;Truncate &amp;amp; Insert&lt;/font&gt;&lt;br&gt;&lt;/div&gt;" style="text;html=1;align=left;verticalAlign=middle;whiteSpace=wrap;rounded=0;" vertex="1" parent="1">
          <mxGeometry x="402.5" y="440" width="105" height="90" as="geometry" />
        </mxCell>
        <mxCell id="rNzydP8nq7r04hHPklQR-48" value="&lt;font style=&quot;font-size: 10px;&quot;&gt;&lt;b&gt;Object Type: &lt;/b&gt;Views&lt;/font&gt;&lt;div&gt;&lt;span style=&quot;font-size: 10px;&quot;&gt;&lt;b&gt;No Load&lt;/b&gt;&lt;/span&gt;&lt;/div&gt;&lt;div&gt;&lt;span style=&quot;font-size: 10px;&quot;&gt;&lt;b&gt;No Transformations&lt;br&gt;Data Modelling:&lt;/b&gt;&lt;/span&gt;&lt;/div&gt;&lt;div&gt;&lt;span style=&quot;font-size: 10px;&quot;&gt;Star Schema&lt;/span&gt;&lt;/div&gt;" style="text;html=1;align=left;verticalAlign=middle;whiteSpace=wrap;rounded=0;" vertex="1" parent="1">
          <mxGeometry x="522.5" y="440" width="97.5" height="90" as="geometry" />
        </mxCell>
      </root>
    </mxGraphModel>
  </diagram>
</mxfile>
